<mxfile host="Electron" modified="2024-09-24T12:27:50.932Z" agent="Mozilla/5.0 (Windows NT 10.0; Win64; x64) AppleWebKit/537.36 (KHTML, like Gecko) draw.io/24.2.5 Chrome/120.0.6099.109 Electron/28.1.0 Safari/537.36" etag="1ttoTmTjhbeCU4hDsl6h" version="24.2.5" type="device">
  <diagram name="Page-1" id="c4acf3e9-155e-7222-9cf6-157b1a14988f">
    <mxGraphModel dx="3002" dy="1874" grid="1" gridSize="10" guides="1" tooltips="1" connect="1" arrows="1" fold="1" page="1" pageScale="1" pageWidth="850" pageHeight="1100" background="none" math="0" shadow="0">
      <root>
        <mxCell id="0" />
        <mxCell id="1" parent="0" />
        <mxCell id="fb7qDsoBfBqJsrEPXAHY-100" value="Does not cover the *Action classes and what is only used by them." style="shape=note;size=20;whiteSpace=wrap;html=1;" parent="1" vertex="1">
          <mxGeometry x="550" y="-610" width="160" height="80" as="geometry" />
        </mxCell>
        <mxCell id="ZR7kzj_-uZc7aep37ibn-1" value="Exceptions and the accesses&amp;nbsp;&lt;span style=&quot;background-color: initial;&quot;&gt;to&lt;/span&gt;&lt;div&gt;&lt;span style=&quot;background-color: initial;&quot;&gt;the project&lt;/span&gt;&lt;div&gt;ProjectFolderPathStoragePlugIn and the static variable projectFolderPath&amp;nbsp; in it&amp;nbsp;&lt;span style=&quot;background-color: initial;&quot;&gt;(almost every class in this diagram is accessing it)&lt;/span&gt;&lt;span style=&quot;background-color: initial;&quot;&gt;&amp;nbsp;left out&amp;nbsp;&lt;/span&gt;&lt;span style=&quot;background-color: initial;&quot;&gt;to avoid cluttering.&lt;/span&gt;&lt;/div&gt;&lt;/div&gt;" style="shape=note;size=20;whiteSpace=wrap;html=1;" parent="1" vertex="1">
          <mxGeometry x="730" y="-620" width="220" height="120" as="geometry" />
        </mxCell>
        <mxCell id="uLxtDjWklTKI-q3hw-Dd-1" value="&lt;p style=&quot;margin:0px;margin-top:4px;text-align:center;&quot;&gt;&lt;i&gt;&amp;lt;&amp;lt;Interface&amp;gt;&amp;gt;&lt;/i&gt;&lt;br&gt;&lt;b&gt;Keywords&lt;/b&gt;&lt;br&gt;&lt;/p&gt;&lt;hr size=&quot;1&quot; style=&quot;border-style:solid;&quot;&gt;&lt;p style=&quot;margin:0px;margin-left:4px;&quot;&gt;&lt;span style=&quot;background-color: initial;&quot;&gt;+&amp;nbsp;&lt;/span&gt;&lt;span style=&quot;background-color: initial;&quot;&gt;directValueKeyword: String = &quot;direct&quot; {readOnly}&lt;/span&gt;&lt;/p&gt;&lt;p style=&quot;margin:0px;margin-left:4px;&quot;&gt;&lt;span style=&quot;background-color: initial;&quot;&gt;+ fromKeyword&lt;/span&gt;&lt;span style=&quot;background-color: initial;&quot;&gt;: String&lt;/span&gt;&lt;span style=&quot;background-color: initial;&quot;&gt;&amp;nbsp;= &quot;from&quot;&lt;/span&gt;&lt;span style=&quot;background-color: initial;&quot;&gt;&amp;nbsp;&lt;/span&gt;&lt;span style=&quot;background-color: initial;&quot;&gt;{readOnly}&lt;/span&gt;&lt;/p&gt;&lt;p style=&quot;margin:0px;margin-left:4px;&quot;&gt;&lt;span style=&quot;background-color: initial;&quot;&gt;+&amp;nbsp;&lt;/span&gt;&lt;span style=&quot;white-space: normal;&quot;&gt;notKeyword&lt;/span&gt;&lt;span style=&quot;background-color: initial;&quot;&gt;: String&lt;/span&gt;&lt;span style=&quot;background-color: initial;&quot;&gt;&amp;nbsp;= &quot;not&quot;&lt;/span&gt;&lt;span style=&quot;background-color: initial;&quot;&gt;&amp;nbsp;&lt;/span&gt;&lt;span style=&quot;background-color: initial;&quot;&gt;{readOnly}&lt;/span&gt;&lt;/p&gt;&lt;p style=&quot;margin:0px;margin-left:4px;&quot;&gt;&lt;span style=&quot;background-color: initial;&quot;&gt;+&lt;/span&gt;&lt;span style=&quot;background-color: initial;&quot;&gt;&amp;nbsp;&lt;/span&gt;&lt;span style=&quot;white-space: normal;&quot;&gt;inKeyword&lt;/span&gt;&lt;span style=&quot;background-color: initial;&quot;&gt;: String&lt;/span&gt;&lt;span style=&quot;background-color: initial;&quot;&gt;&amp;nbsp;= &quot;in&quot;&lt;/span&gt;&lt;span style=&quot;background-color: initial;&quot;&gt;&amp;nbsp;&lt;/span&gt;&lt;span style=&quot;background-color: initial;&quot;&gt;{readOnly}&lt;/span&gt;&lt;/p&gt;&lt;p style=&quot;margin:0px;margin-left:4px;&quot;&gt;&lt;span style=&quot;background-color: initial;&quot;&gt;+&lt;/span&gt;&lt;span style=&quot;background-color: initial;&quot;&gt;&amp;nbsp;&lt;/span&gt;&lt;span style=&quot;white-space: normal;&quot;&gt;outKeyword&lt;/span&gt;&lt;span style=&quot;background-color: initial;&quot;&gt;: String&lt;/span&gt;&lt;span style=&quot;background-color: initial;&quot;&gt;&amp;nbsp;= &quot;out&quot;&lt;/span&gt;&lt;span style=&quot;background-color: initial;&quot;&gt;&amp;nbsp;&lt;/span&gt;&lt;span style=&quot;background-color: initial;&quot;&gt;{readOnly}&lt;/span&gt;&lt;/p&gt;&lt;p style=&quot;margin:0px;margin-left:4px;&quot;&gt;&lt;span style=&quot;background-color: initial;&quot;&gt;+&lt;/span&gt;&lt;span style=&quot;background-color: initial;&quot;&gt;&amp;nbsp;all&lt;/span&gt;&lt;span style=&quot;background-color: initial;&quot;&gt;Keyword&lt;/span&gt;&lt;span style=&quot;background-color: initial;&quot;&gt;: String&lt;/span&gt;&lt;span style=&quot;background-color: initial;&quot;&gt;&amp;nbsp;= &quot;all&quot;&lt;/span&gt;&lt;span style=&quot;background-color: initial;&quot;&gt;&amp;nbsp;&lt;/span&gt;&lt;span style=&quot;background-color: initial;&quot;&gt;{readOnly}&lt;/span&gt;&lt;/p&gt;&lt;p style=&quot;margin:0px;margin-left:4px;&quot;&gt;&lt;span style=&quot;background-color: initial;&quot;&gt;&lt;br&gt;&lt;/span&gt;&lt;/p&gt;&lt;p style=&quot;margin:0px;margin-left:4px;&quot;&gt;&lt;span style=&quot;background-color: initial;&quot;&gt;+&lt;/span&gt;&lt;span style=&quot;background-color: initial;&quot;&gt;&amp;nbsp;&lt;/span&gt;&lt;span style=&quot;white-space: normal;&quot;&gt;variableDefsKeyword&lt;/span&gt;&lt;span style=&quot;background-color: initial;&quot;&gt;: String&lt;/span&gt;&lt;span style=&quot;background-color: initial;&quot;&gt;&amp;nbsp;= &quot;VariableDefs&quot;&lt;/span&gt;&lt;span style=&quot;background-color: initial;&quot;&gt;&amp;nbsp;&lt;/span&gt;&lt;span style=&quot;background-color: initial;&quot;&gt;{readOnly}&lt;/span&gt;&lt;/p&gt;&lt;p style=&quot;margin:0px;margin-left:4px;&quot;&gt;&lt;span style=&quot;background-color: initial;&quot;&gt;+&lt;/span&gt;&lt;span style=&quot;background-color: initial;&quot;&gt;&amp;nbsp;&lt;/span&gt;&lt;span style=&quot;background-color: initial;&quot;&gt;transformationAndCodeGenerationPreconfigurationsDefKeyword: String = &quot;TransformationAndCodeGenerationPreconfigurations&quot;&amp;nbsp;&lt;/span&gt;&lt;span style=&quot;background-color: initial;&quot;&gt;{readOnly}&lt;/span&gt;&lt;/p&gt;&lt;p style=&quot;margin:0px;margin-left:4px;&quot;&gt;&lt;span style=&quot;background-color: initial;&quot;&gt;+&amp;nbsp;&lt;/span&gt;&lt;span style=&quot;background-color: initial;&quot;&gt;postProcessingSequenceDefKeyword&lt;/span&gt;&lt;span style=&quot;background-color: initial;&quot;&gt;: String&lt;/span&gt;&lt;span style=&quot;background-color: initial;&quot;&gt;&amp;nbsp;= &quot;PostProcessingSequence&quot; {readOnly}&lt;/span&gt;&lt;/p&gt;&lt;p style=&quot;margin:0px;margin-left:4px;&quot;&gt;&lt;span style=&quot;background-color: initial;&quot;&gt;+&lt;/span&gt;&lt;span style=&quot;background-color: initial;&quot;&gt;&amp;nbsp;&lt;/span&gt;&lt;span style=&quot;white-space: normal;&quot;&gt;pipelineSequenceDefKeyword&lt;/span&gt;&lt;span style=&quot;background-color: initial;&quot;&gt;: String&lt;/span&gt;&lt;span style=&quot;background-color: initial;&quot;&gt;&amp;nbsp;= &quot;PipelineSequence&quot;&lt;/span&gt;&lt;span style=&quot;background-color: initial;&quot;&gt;&amp;nbsp;&lt;/span&gt;&lt;span style=&quot;background-color: initial;&quot;&gt;{readOnly}&lt;/span&gt;&lt;/p&gt;&lt;p style=&quot;margin:0px;margin-left:4px;&quot;&gt;&lt;span style=&quot;background-color: initial;&quot;&gt;&lt;br&gt;&lt;/span&gt;&lt;/p&gt;&lt;p style=&quot;margin:0px;margin-left:4px;&quot;&gt;&lt;span style=&quot;background-color: initial;&quot;&gt;+&lt;/span&gt;&lt;span style=&quot;background-color: initial;&quot;&gt;&amp;nbsp;&lt;/span&gt;variableDefKeyword&lt;span style=&quot;background-color: initial;&quot;&gt;: String&lt;/span&gt;&lt;span style=&quot;background-color: initial;&quot;&gt;&amp;nbsp;= &quot;VariableDef&quot;&lt;/span&gt;&lt;span style=&quot;background-color: initial;&quot;&gt;&amp;nbsp;&lt;/span&gt;&lt;span style=&quot;background-color: initial;&quot;&gt;{readOnly}&lt;/span&gt;&lt;/p&gt;&lt;p style=&quot;margin:0px;margin-left:4px;&quot;&gt;&lt;span style=&quot;background-color: initial;&quot;&gt;+&lt;/span&gt;&lt;span style=&quot;background-color: initial;&quot;&gt;&amp;nbsp;&lt;/span&gt;&lt;span style=&quot;white-space: normal;&quot;&gt;variableDefNameKeyword&lt;/span&gt;&lt;span style=&quot;background-color: initial;&quot;&gt;: String&lt;/span&gt;&lt;span style=&quot;background-color: initial;&quot;&gt;&amp;nbsp;= &quot;name&quot;&lt;/span&gt;&lt;span style=&quot;background-color: initial;&quot;&gt;&amp;nbsp;&lt;/span&gt;&lt;span style=&quot;background-color: initial;&quot;&gt;{readOnly}&lt;/span&gt;&lt;/p&gt;&lt;p style=&quot;margin:0px;margin-left:4px;&quot;&gt;&lt;span style=&quot;background-color: initial;&quot;&gt;+&lt;/span&gt;&lt;span style=&quot;background-color: initial;&quot;&gt;&amp;nbsp;&lt;/span&gt;&lt;span style=&quot;white-space: normal;&quot;&gt;variableDefTypeKeyword&lt;/span&gt;&lt;span style=&quot;background-color: initial;&quot;&gt;: String&lt;/span&gt;&lt;span style=&quot;background-color: initial;&quot;&gt;&amp;nbsp;= &quot;type&quot;&lt;/span&gt;&lt;span style=&quot;background-color: initial;&quot;&gt;&amp;nbsp;&lt;/span&gt;&lt;span style=&quot;background-color: initial;&quot;&gt;{readOnly}&lt;/span&gt;&lt;/p&gt;&lt;p style=&quot;margin:0px;margin-left:4px;&quot;&gt;&lt;span style=&quot;background-color: initial;&quot;&gt;&lt;/span&gt;&lt;/p&gt;&lt;p style=&quot;margin:0px;margin-left:4px;&quot;&gt;&lt;span style=&quot;background-color: initial;&quot;&gt;+&lt;/span&gt;&lt;span style=&quot;background-color: initial;&quot;&gt;&amp;nbsp;&lt;/span&gt;&lt;span style=&quot;white-space: normal;&quot;&gt;variableDefValueKeyword&lt;/span&gt;&lt;span style=&quot;background-color: initial;&quot;&gt;: String&lt;/span&gt;&lt;span style=&quot;background-color: initial;&quot;&gt;&amp;nbsp;= &quot;value&quot;&lt;/span&gt;&lt;span style=&quot;background-color: initial;&quot;&gt;&amp;nbsp;&lt;/span&gt;&lt;span style=&quot;background-color: initial;&quot;&gt;{readOnly}&lt;/span&gt;&lt;/p&gt;" style="verticalAlign=top;align=left;overflow=fill;html=1;whiteSpace=wrap;" parent="1" vertex="1">
          <mxGeometry x="340" y="-320" width="780" height="280" as="geometry" />
        </mxCell>
        <mxCell id="uLxtDjWklTKI-q3hw-Dd-2" value="&lt;p style=&quot;margin:0px;margin-top:4px;text-align:center;&quot;&gt;&lt;b&gt;PipelineStepDictionary&lt;/b&gt;&lt;br&gt;&lt;/p&gt;&lt;hr size=&quot;1&quot; style=&quot;border-style:solid;&quot;&gt;&lt;p style=&quot;margin:0px;margin-left:4px;&quot;&gt;&lt;br&gt;&lt;/p&gt;&lt;hr size=&quot;1&quot; style=&quot;border-style:solid;&quot;&gt;&lt;p style=&quot;margin:0px;margin-left:4px;&quot;&gt;&lt;i&gt;+&amp;nbsp;&lt;span style=&quot;background-color: initial;&quot;&gt;lookupStepNameAndGenerateInstance(VariableHandlerInstance:&amp;nbsp;&lt;/span&gt;&lt;/i&gt;&lt;i style=&quot;background-color: initial;&quot;&gt;VariableHandler&lt;/i&gt;&lt;i style=&quot;background-color: initial;&quot;&gt;&lt;span style=&quot;background-color: initial;&quot;&gt;, className: String,&amp;nbsp;&lt;/span&gt;&lt;/i&gt;&lt;i style=&quot;background-color: initial;&quot;&gt;parameters:&amp;nbsp;&lt;/i&gt;&lt;i style=&quot;background-color: initial;&quot;&gt;&lt;span style=&quot;background-color: initial;&quot;&gt;Map&amp;lt;String, Map&amp;lt;String, String&amp;gt;&amp;gt;): PipelineStep&lt;/span&gt;&lt;/i&gt;&lt;/p&gt;&lt;p style=&quot;margin:0px;margin-left:4px;&quot;&gt;&lt;i&gt;&lt;span style=&quot;background-color: initial;&quot;&gt;+&amp;nbsp;&lt;/span&gt;&lt;/i&gt;&lt;span style=&quot;background-color: initial;&quot;&gt;&lt;i&gt;getAllowedTransformationAndCodeGenerationPreconfigurations(): Set&amp;lt;String&amp;gt;&lt;/i&gt;&lt;/span&gt;&lt;/p&gt;" style="verticalAlign=top;align=left;overflow=fill;html=1;whiteSpace=wrap;" parent="1" vertex="1">
          <mxGeometry x="-530" y="-610" width="920" height="100" as="geometry" />
        </mxCell>
        <mxCell id="uLxtDjWklTKI-q3hw-Dd-3" value="&lt;i&gt;PipelineStep&lt;/i&gt;" style="swimlane;fontStyle=1;align=center;verticalAlign=top;childLayout=stackLayout;horizontal=1;startSize=26;horizontalStack=0;resizeParent=1;resizeParentMax=0;resizeLast=0;collapsible=1;marginBottom=0;whiteSpace=wrap;html=1;" parent="1" vertex="1">
          <mxGeometry x="400" width="740" height="440" as="geometry" />
        </mxCell>
        <mxCell id="uLxtDjWklTKI-q3hw-Dd-4" value="&lt;div&gt;&lt;span style=&quot;background-color: initial;&quot;&gt;#&amp;nbsp;&lt;/span&gt;&lt;span style=&quot;background-color: initial;&quot;&gt;VariableHandlerInstance:&amp;nbsp;&lt;/span&gt;&lt;span style=&quot;background-color: initial;&quot;&gt;VariableHandler&lt;/span&gt;&lt;/div&gt;&lt;div&gt;&lt;span style=&quot;background-color: initial;&quot;&gt;# in: Map&amp;lt;String, String&amp;gt;&lt;/span&gt;&lt;br&gt;&lt;/div&gt;&lt;div&gt;&lt;span style=&quot;white-space: normal;&quot;&gt;# out: Map&amp;lt;String, String&amp;gt;&lt;/span&gt;&lt;/div&gt;" style="text;strokeColor=none;fillColor=none;align=left;verticalAlign=top;spacingLeft=4;spacingRight=4;overflow=hidden;rotatable=0;points=[[0,0.5],[1,0.5]];portConstraint=eastwest;whiteSpace=wrap;html=1;" parent="uLxtDjWklTKI-q3hw-Dd-3" vertex="1">
          <mxGeometry y="26" width="740" height="64" as="geometry" />
        </mxCell>
        <mxCell id="uLxtDjWklTKI-q3hw-Dd-5" value="" style="line;strokeWidth=1;fillColor=none;align=left;verticalAlign=middle;spacingTop=-1;spacingLeft=3;spacingRight=3;rotatable=0;labelPosition=right;points=[];portConstraint=eastwest;strokeColor=inherit;" parent="uLxtDjWklTKI-q3hw-Dd-3" vertex="1">
          <mxGeometry y="90" width="740" height="8" as="geometry" />
        </mxCell>
        <mxCell id="uLxtDjWklTKI-q3hw-Dd-6" value="# g&lt;i&gt;etRequiredInsAndOuts(): &lt;/i&gt;&lt;span style=&quot;background-color: initial;&quot;&gt;Map&amp;lt;String,&amp;nbsp;&lt;/span&gt;Map&amp;lt;String,&amp;nbsp;&lt;span style=&quot;background-color: initial;&quot;&gt;String&amp;gt;&amp;gt;&lt;/span&gt;&lt;div&gt;+&amp;nbsp;&lt;span style=&quot;background-color: initial;&quot;&gt;PipelineStep(VariableHandlerInstance:&amp;nbsp;&lt;/span&gt;&lt;span style=&quot;background-color: initial;&quot;&gt;VariableHandler&lt;/span&gt;&lt;span style=&quot;background-color: initial;&quot;&gt;, readData: Map&amp;lt;String, Map&amp;lt;String, String&amp;gt;&amp;gt;):&amp;nbsp;&lt;/span&gt;&lt;span style=&quot;background-color: initial;&quot;&gt;PipelineStep&lt;/span&gt;&lt;/div&gt;&lt;div&gt;+&amp;nbsp;&lt;span style=&quot;background-color: initial;&quot;&gt;PipelineStep(&lt;/span&gt;&lt;span style=&quot;background-color: initial;&quot;&gt;VariableHandlerInstance:&amp;nbsp;&lt;/span&gt;&lt;span style=&quot;background-color: initial;&quot;&gt;VariableHandler&lt;/span&gt;&lt;span style=&quot;background-color: initial;&quot;&gt;, yamlData: String):&amp;nbsp;&lt;/span&gt;&lt;span style=&quot;background-color: initial;&quot;&gt;PipelineStep&lt;/span&gt;&lt;span style=&quot;background-color: initial;&quot;&gt;&lt;i&gt;&lt;br&gt;&lt;/i&gt;&lt;/span&gt;&lt;/div&gt;&lt;div&gt;&lt;span style=&quot;background-color: initial;&quot;&gt;-&amp;nbsp;&lt;/span&gt;&lt;span style=&quot;background-color: initial;&quot;&gt;resolveInputEntry(entry: String):&amp;nbsp;&lt;/span&gt;&lt;span style=&quot;background-color: initial;&quot;&gt;VariableContent&lt;/span&gt;&lt;/div&gt;&lt;div&gt;&lt;span style=&quot;background-color: initial;&quot;&gt;#&amp;nbsp;&lt;/span&gt;&lt;span style=&quot;background-color: initial;&quot;&gt;handleInputByKey(inputParameterKey: String):&amp;nbsp;&lt;/span&gt;&lt;span style=&quot;background-color: initial;&quot;&gt;VariableContent&lt;/span&gt;&lt;span style=&quot;background-color: initial;&quot;&gt;&lt;br&gt;&lt;/span&gt;&lt;/div&gt;&lt;span style=&quot;background-color: initial;&quot;&gt;#&amp;nbsp;&lt;/span&gt;&lt;span style=&quot;background-color: initial;&quot;&gt;handleInputByKeyAsArray(inputParameterKey: String, split: String):&amp;nbsp;&lt;/span&gt;&lt;span style=&quot;background-color: initial;&quot;&gt;String[]&lt;/span&gt;&lt;div&gt;&lt;span style=&quot;background-color: initial;&quot;&gt;#&amp;nbsp;&lt;/span&gt;&lt;span style=&quot;background-color: initial;&quot;&gt;handleOutputByKey(outputKey: String, newValue: VariableContent): void&lt;/span&gt;&lt;/div&gt;&lt;div&gt;&lt;span style=&quot;background-color: initial;&quot;&gt;#&amp;nbsp;&lt;/span&gt;&lt;span style=&quot;background-color: initial;&quot;&gt;handleOutputByKey(outputKey: String, newValue: String)&lt;/span&gt;&lt;span style=&quot;background-color: initial;&quot;&gt;: void&lt;/span&gt;&lt;/div&gt;&lt;div&gt;&lt;span style=&quot;background-color: initial;&quot;&gt;#&amp;nbsp;&lt;/span&gt;&lt;span style=&quot;background-color: initial;&quot;&gt;handleOutputByKey(outputKey: String, newValue: int)&lt;/span&gt;&lt;span style=&quot;background-color: initial;&quot;&gt;: void&lt;/span&gt;&lt;/div&gt;&lt;div&gt;&lt;span style=&quot;background-color: initial;&quot;&gt;#&amp;nbsp;&lt;/span&gt;&lt;span style=&quot;background-color: initial;&quot;&gt;handleOutputByKey(outputKey: String, newValue: boolean)&lt;/span&gt;&lt;span style=&quot;background-color: initial;&quot;&gt;: void&lt;/span&gt;&lt;/div&gt;&lt;div&gt;&lt;span style=&quot;background-color: initial;&quot;&gt;-&amp;nbsp;&lt;/span&gt;&lt;span style=&quot;background-color: initial;&quot;&gt;checkForDetectableErrorsEntryCheck(entry: String&lt;/span&gt;&lt;span style=&quot;background-color: initial;&quot;&gt;, expectedType&lt;/span&gt;&lt;span style=&quot;background-color: initial;&quot;&gt;: String&lt;/span&gt;&lt;span style=&quot;background-color: initial;&quot;&gt;,&amp;nbsp;&lt;/span&gt;&lt;span style=&quot;background-color: initial;&quot;&gt;ValidationVariableHandlerInstance:&amp;nbsp;&lt;/span&gt;&lt;span style=&quot;background-color: initial;&quot;&gt;VariableHandler&lt;/span&gt;&lt;span style=&quot;background-color: initial;&quot;&gt;): void&lt;/span&gt;&lt;/div&gt;&lt;div&gt;&lt;span style=&quot;background-color: initial;&quot;&gt;+&amp;nbsp;&lt;/span&gt;&lt;span style=&quot;background-color: initial;&quot;&gt;checkForDetectableErrors(&lt;/span&gt;&lt;span style=&quot;background-color: initial;&quot;&gt;ValidationVariableHandlerInstance:&amp;nbsp;&lt;/span&gt;&lt;span style=&quot;background-color: initial;&quot;&gt;VariableHandler&lt;/span&gt;&lt;span style=&quot;background-color: initial;&quot;&gt;): void&lt;/span&gt;&lt;/div&gt;&lt;div&gt;&lt;span style=&quot;background-color: initial;&quot;&gt;#&amp;nbsp;&lt;/span&gt;&lt;span style=&quot;background-color: initial;&quot;&gt;resolveFullOrLocalPath(givenPathString: String): Path&lt;/span&gt;&lt;/div&gt;&lt;div&gt;&lt;span style=&quot;background-color: initial;&quot;&gt;+&amp;nbsp;&lt;/span&gt;&lt;span style=&quot;background-color: initial;&quot;&gt;&lt;i&gt;execute(): void&lt;/i&gt;&lt;/span&gt;&lt;/div&gt;&lt;div&gt;&lt;span style=&quot;background-color: initial;&quot;&gt;+ toString(): String&lt;/span&gt;&lt;/div&gt;&lt;div&gt;&lt;span style=&quot;background-color: initial;&quot;&gt;&lt;br&gt;&lt;/span&gt;&lt;/div&gt;&lt;div&gt;&lt;span style=&quot;background-color: initial;&quot;&gt;// For workarounds that require more access possibilities:&lt;br&gt;&lt;/span&gt;&lt;/div&gt;&lt;div&gt;&lt;span style=&quot;background-color: initial;&quot;&gt;+&amp;nbsp;&lt;/span&gt;&lt;span style=&quot;background-color: initial;&quot;&gt;getContentOfInput(key: String):&amp;nbsp;&lt;/span&gt;&lt;span style=&quot;background-color: initial;&quot;&gt;VariableContent&lt;/span&gt;&lt;/div&gt;&lt;div&gt;&lt;span style=&quot;background-color: initial;&quot;&gt;+&amp;nbsp;&lt;/span&gt;&lt;span style=&quot;background-color: initial;&quot;&gt;setContentOfOutput(key: String, newValue: VariableContent)&lt;/span&gt;&lt;span style=&quot;background-color: initial;&quot;&gt;: void&lt;/span&gt;&lt;/div&gt;&lt;div&gt;&lt;span style=&quot;background-color: initial;&quot;&gt;+&amp;nbsp;&lt;/span&gt;&lt;span style=&quot;background-color: initial;&quot;&gt;setContentOfOutput(key: String, newValue: String)&lt;/span&gt;&lt;span style=&quot;background-color: initial;&quot;&gt;: void&lt;/span&gt;&lt;/div&gt;&lt;div&gt;&lt;span style=&quot;background-color: initial;&quot;&gt;+&amp;nbsp;&lt;/span&gt;&lt;span style=&quot;background-color: initial;&quot;&gt;setContentOfOutput(key: String, newValue: int)&lt;/span&gt;&lt;span style=&quot;background-color: initial;&quot;&gt;: void&lt;/span&gt;&lt;/div&gt;&lt;div&gt;&lt;span style=&quot;background-color: initial;&quot;&gt;+&amp;nbsp;&lt;/span&gt;&lt;span style=&quot;background-color: initial;&quot;&gt;setContentOfOutput(key: String, newValue: boolean): void&lt;/span&gt;&lt;/div&gt;&lt;div&gt;&lt;span style=&quot;background-color: initial;&quot;&gt;+&amp;nbsp;&lt;/span&gt;&lt;span style=&quot;background-color: initial;&quot;&gt;getResolvedPathContentOfInput(key: String): Path&lt;/span&gt;&lt;/div&gt;" style="text;strokeColor=none;fillColor=none;align=left;verticalAlign=top;spacingLeft=4;spacingRight=4;overflow=hidden;rotatable=0;points=[[0,0.5],[1,0.5]];portConstraint=eastwest;whiteSpace=wrap;html=1;" parent="uLxtDjWklTKI-q3hw-Dd-3" vertex="1">
          <mxGeometry y="98" width="740" height="342" as="geometry" />
        </mxCell>
        <mxCell id="uLxtDjWklTKI-q3hw-Dd-8" value="implements" style="endArrow=open;endSize=12;dashed=1;html=1;rounded=0;" parent="1" source="uLxtDjWklTKI-q3hw-Dd-3" target="uLxtDjWklTKI-q3hw-Dd-1" edge="1">
          <mxGeometry y="-40" width="160" relative="1" as="geometry">
            <mxPoint x="1370" y="-70" as="sourcePoint" />
            <mxPoint x="1530" y="-70" as="targetPoint" />
            <mxPoint as="offset" />
          </mxGeometry>
        </mxCell>
        <mxCell id="P9FuWWec83mATxmhUHeq-1" value="[PipelineStep subclass]" style="swimlane;fontStyle=1;align=center;verticalAlign=top;childLayout=stackLayout;horizontal=1;startSize=26;horizontalStack=0;resizeParent=1;resizeParentMax=0;resizeLast=0;collapsible=1;marginBottom=0;whiteSpace=wrap;html=1;" parent="1" vertex="1">
          <mxGeometry x="260" y="480" width="760" height="140" as="geometry" />
        </mxCell>
        <mxCell id="P9FuWWec83mATxmhUHeq-2" value="+&amp;nbsp;&lt;u&gt;nameFlag : String = &quot;[Name of the PipelineStep Subclass]&quot;&lt;/u&gt; {readOnly}&lt;div&gt;&lt;div&gt;&lt;br&gt;&lt;/div&gt;&lt;div&gt;&lt;br&gt;&lt;/div&gt;&lt;/div&gt;" style="text;strokeColor=none;fillColor=none;align=left;verticalAlign=top;spacingLeft=4;spacingRight=4;overflow=hidden;rotatable=0;points=[[0,0.5],[1,0.5]];portConstraint=eastwest;whiteSpace=wrap;html=1;" parent="P9FuWWec83mATxmhUHeq-1" vertex="1">
          <mxGeometry y="26" width="760" height="24" as="geometry" />
        </mxCell>
        <mxCell id="P9FuWWec83mATxmhUHeq-3" value="" style="line;strokeWidth=1;fillColor=none;align=left;verticalAlign=middle;spacingTop=-1;spacingLeft=3;spacingRight=3;rotatable=0;labelPosition=right;points=[];portConstraint=eastwest;strokeColor=inherit;" parent="P9FuWWec83mATxmhUHeq-1" vertex="1">
          <mxGeometry y="50" width="760" height="8" as="geometry" />
        </mxCell>
        <mxCell id="P9FuWWec83mATxmhUHeq-4" value="+ [PipelineStepSubclass](VariableHandlerInstance: VariableHandler, Map&amp;lt;String, Map&amp;lt;String, String&amp;gt;&amp;gt; readData): [PipelineStepSubClass]&lt;div&gt;+ [PipelineStepSubclass](&lt;span style=&quot;background-color: initial;&quot;&gt;VariableHandlerInstance:&amp;nbsp;&lt;/span&gt;&lt;span style=&quot;background-color: initial;&quot;&gt;VariableHandler, yamlData: String):&amp;nbsp;&lt;/span&gt;&lt;span style=&quot;background-color: initial;&quot;&gt;[PipelineStepSubClass]&lt;/span&gt;&lt;/div&gt;&lt;div&gt;# g&lt;i&gt;etRequiredInsAndOuts():&amp;nbsp;&lt;/i&gt;&lt;span style=&quot;background-color: initial;&quot;&gt;Map&amp;lt;String,&amp;nbsp;&lt;/span&gt;Map&amp;lt;String,&amp;nbsp;&lt;span style=&quot;background-color: initial;&quot;&gt;String&amp;gt;&amp;gt;&lt;/span&gt;&lt;/div&gt;&lt;div&gt;+ generateDefaultOrExampleValues():&amp;nbsp;Map&amp;lt;String, Map&amp;lt;String, String&amp;gt;&amp;gt;&lt;/div&gt;&lt;div&gt;+ execute(): void&lt;/div&gt;" style="text;strokeColor=none;fillColor=none;align=left;verticalAlign=top;spacingLeft=4;spacingRight=4;overflow=hidden;rotatable=0;points=[[0,0.5],[1,0.5]];portConstraint=eastwest;whiteSpace=wrap;html=1;" parent="P9FuWWec83mATxmhUHeq-1" vertex="1">
          <mxGeometry y="58" width="760" height="82" as="geometry" />
        </mxCell>
        <mxCell id="P9FuWWec83mATxmhUHeq-6" value="Extends" style="endArrow=block;endSize=16;endFill=0;html=1;rounded=0;" parent="1" source="P9FuWWec83mATxmhUHeq-1" target="uLxtDjWklTKI-q3hw-Dd-3" edge="1">
          <mxGeometry x="0.3843" y="-31" width="160" relative="1" as="geometry">
            <mxPoint x="610" y="520" as="sourcePoint" />
            <mxPoint x="770" y="520" as="targetPoint" />
            <mxPoint as="offset" />
          </mxGeometry>
        </mxCell>
        <mxCell id="P9FuWWec83mATxmhUHeq-7" value="English:&lt;div&gt;Many subclasses have been created,&amp;nbsp;&lt;span style=&quot;background-color: initial;&quot;&gt;each one for a step in the&lt;/span&gt;&lt;div&gt;&lt;span style=&quot;background-color: initial;&quot;&gt;work process. For readability the subclasses of PipelineStep are left out of this diagram.&lt;/span&gt;&lt;/div&gt;&lt;/div&gt;" style="shape=note;size=20;whiteSpace=wrap;html=1;align=left;" parent="1" vertex="1">
          <mxGeometry x="610" y="620" width="400" height="80" as="geometry" />
        </mxCell>
        <mxCell id="P9FuWWec83mATxmhUHeq-25" value="&lt;p style=&quot;margin:0px;margin-top:4px;text-align:center;&quot;&gt;&lt;b&gt;PipelineStepDictionaryMUMLPostProcessingAndArduinoCLIUtilizer&lt;/b&gt;&lt;br&gt;&lt;/p&gt;&lt;hr size=&quot;1&quot; style=&quot;border-style:solid;&quot;&gt;&lt;p style=&quot;margin:0px;margin-left:4px;&quot;&gt;&lt;br&gt;&lt;/p&gt;&lt;hr size=&quot;1&quot; style=&quot;border-style:solid;&quot;&gt;&lt;p style=&quot;margin:0px;margin-left:4px;&quot;&gt;+&amp;nbsp;&lt;span style=&quot;background-color: initial;&quot;&gt;lookupStepNameAndGenerateInstance(VariableHandlerInstance:&amp;nbsp;&lt;/span&gt;&lt;span style=&quot;background-color: initial;&quot;&gt;VariableHandler&lt;/span&gt;&lt;span style=&quot;background-color: initial;&quot;&gt;, className: String, Map&amp;lt;String, Map&amp;lt;String, String&amp;gt;&amp;gt; parameters): PipelineStep&lt;/span&gt;&lt;/p&gt;&lt;p style=&quot;margin:0px;margin-left:4px;&quot;&gt;+&amp;nbsp;&lt;span style=&quot;background-color: initial;&quot;&gt;getAllowedTransformationAndCodeGenerationPreconfigurations(): Set&amp;lt;String&amp;gt;&lt;/span&gt;&lt;span style=&quot;background-color: initial;&quot;&gt;&lt;br&gt;&lt;/span&gt;&lt;/p&gt;" style="verticalAlign=top;align=left;overflow=fill;html=1;whiteSpace=wrap;" parent="1" vertex="1">
          <mxGeometry x="100" y="-470" width="880" height="110" as="geometry" />
        </mxCell>
        <mxCell id="P9FuWWec83mATxmhUHeq-26" value="Extends" style="endArrow=block;endSize=16;endFill=0;html=1;rounded=0;entryX=1;entryY=1;entryDx=0;entryDy=0;" parent="1" source="P9FuWWec83mATxmhUHeq-25" target="uLxtDjWklTKI-q3hw-Dd-2" edge="1">
          <mxGeometry x="-0.1939" y="-16" width="160" relative="1" as="geometry">
            <mxPoint x="1320" y="-30" as="sourcePoint" />
            <mxPoint x="1320" y="-70" as="targetPoint" />
            <mxPoint as="offset" />
          </mxGeometry>
        </mxCell>
        <mxCell id="LuJtDev87egbKqZCu1ZT-1" value="VariableHandler" style="swimlane;fontStyle=1;align=center;verticalAlign=top;childLayout=stackLayout;horizontal=1;startSize=26;horizontalStack=0;resizeParent=1;resizeParentMax=0;resizeLast=0;collapsible=1;marginBottom=0;whiteSpace=wrap;html=1;" parent="1" vertex="1">
          <mxGeometry x="-290" y="-120" width="410" height="320" as="geometry" />
        </mxCell>
        <mxCell id="LuJtDev87egbKqZCu1ZT-2" value="-&amp;nbsp;&lt;span style=&quot;background-color: initial;&quot;&gt;variableInitialized:&amp;nbsp;&lt;/span&gt;HashSet&amp;lt;String&amp;gt;&lt;div&gt;&lt;div&gt;-&amp;nbsp;&lt;span style=&quot;background-color: initial;&quot;&gt;variableValues:&amp;nbsp;&lt;/span&gt;&lt;span style=&quot;background-color: initial;&quot;&gt;LinkedHashMap&amp;lt;String, VariableContent&amp;gt;&lt;/span&gt;&lt;/div&gt;&lt;div&gt;&lt;span style=&quot;white-space: normal;&quot;&gt;- variableTypes:&amp;nbsp;&lt;/span&gt;&lt;span style=&quot;background-color: initial;&quot;&gt;LinkedHashMap&amp;lt;String, String&amp;gt;&lt;/span&gt;&lt;/div&gt;&lt;/div&gt;" style="text;strokeColor=none;fillColor=none;align=left;verticalAlign=top;spacingLeft=4;spacingRight=4;overflow=hidden;rotatable=0;points=[[0,0.5],[1,0.5]];portConstraint=eastwest;whiteSpace=wrap;html=1;" parent="LuJtDev87egbKqZCu1ZT-1" vertex="1">
          <mxGeometry y="26" width="410" height="64" as="geometry" />
        </mxCell>
        <mxCell id="LuJtDev87egbKqZCu1ZT-3" value="" style="line;strokeWidth=1;fillColor=none;align=left;verticalAlign=middle;spacingTop=-1;spacingLeft=3;spacingRight=3;rotatable=0;labelPosition=right;points=[];portConstraint=eastwest;strokeColor=inherit;" parent="LuJtDev87egbKqZCu1ZT-1" vertex="1">
          <mxGeometry y="90" width="410" height="8" as="geometry" />
        </mxCell>
        <mxCell id="LuJtDev87egbKqZCu1ZT-4" value="+ VariableHandler():&amp;nbsp;VariableHandler&lt;div&gt;#&amp;nbsp;clearStorage():&amp;nbsp;void&lt;/div&gt;&lt;div&gt;+ setVariableInitialized(key: String): void&lt;/div&gt;&lt;div&gt;+&amp;nbsp;&lt;span style=&quot;background-color: initial;&quot;&gt;getCopyForValidations():&amp;nbsp;&lt;/span&gt;&lt;span style=&quot;background-color: initial;&quot;&gt;VariableHandler&lt;/span&gt;&lt;/div&gt;&lt;div&gt;+ setVariableAsInitializedForValidation(key: String, type: String): boolean&lt;/div&gt;&lt;div&gt;+&amp;nbsp;isVariableInitialized(key: String): boolean&lt;/div&gt;&lt;div&gt;+&amp;nbsp;getVariableType&lt;span style=&quot;background-color: initial;&quot;&gt;(key: String):&lt;/span&gt;&lt;span style=&quot;background-color: initial;&quot;&gt;&amp;nbsp;String&lt;/span&gt;&lt;/div&gt;&lt;div&gt;+&amp;nbsp;setVariableValue(key: String, value: VariableContent)&lt;span style=&quot;background-color: initial;&quot;&gt;: void&lt;/span&gt;&lt;/div&gt;&lt;div&gt;+&amp;nbsp;setVariableValue(key: String, value: String)&lt;span style=&quot;background-color: initial;&quot;&gt;: void&lt;/span&gt;&lt;/div&gt;&lt;div&gt;+&amp;nbsp;setVariableValue(key: String, value: int)&lt;span style=&quot;background-color: initial;&quot;&gt;: void&lt;/span&gt;&lt;/div&gt;&lt;div&gt;+&amp;nbsp;setVariableValue(key: String, value: boolean): void&lt;/div&gt;&lt;div&gt;+&amp;nbsp;getVariableValue(key: String): VariableContent&lt;/div&gt;&lt;div&gt;+&amp;nbsp;generateVariableNotDefinedException(key: String): void&lt;/div&gt;" style="text;strokeColor=none;fillColor=none;align=left;verticalAlign=top;spacingLeft=4;spacingRight=4;overflow=hidden;rotatable=0;points=[[0,0.5],[1,0.5]];portConstraint=eastwest;whiteSpace=wrap;html=1;" parent="LuJtDev87egbKqZCu1ZT-1" vertex="1">
          <mxGeometry y="98" width="410" height="222" as="geometry" />
        </mxCell>
        <mxCell id="LuJtDev87egbKqZCu1ZT-5" value="VariableContent" style="swimlane;fontStyle=1;align=center;verticalAlign=top;childLayout=stackLayout;horizontal=1;startSize=26;horizontalStack=0;resizeParent=1;resizeParentMax=0;resizeLast=0;collapsible=1;marginBottom=0;whiteSpace=wrap;html=1;" parent="1" vertex="1">
          <mxGeometry x="-240" y="-390" width="310" height="210" as="geometry" />
        </mxCell>
        <mxCell id="LuJtDev87egbKqZCu1ZT-6" value="- content: String" style="text;strokeColor=none;fillColor=none;align=left;verticalAlign=top;spacingLeft=4;spacingRight=4;overflow=hidden;rotatable=0;points=[[0,0.5],[1,0.5]];portConstraint=eastwest;whiteSpace=wrap;html=1;" parent="LuJtDev87egbKqZCu1ZT-5" vertex="1">
          <mxGeometry y="26" width="310" height="26" as="geometry" />
        </mxCell>
        <mxCell id="LuJtDev87egbKqZCu1ZT-7" value="" style="line;strokeWidth=1;fillColor=none;align=left;verticalAlign=middle;spacingTop=-1;spacingLeft=3;spacingRight=3;rotatable=0;labelPosition=right;points=[];portConstraint=eastwest;strokeColor=inherit;" parent="LuJtDev87egbKqZCu1ZT-5" vertex="1">
          <mxGeometry y="52" width="310" height="8" as="geometry" />
        </mxCell>
        <mxCell id="LuJtDev87egbKqZCu1ZT-8" value="+ VariableContent(content: String):&amp;nbsp;VariableContent&lt;div&gt;+ VariableContent(content: boolean):&amp;nbsp;VariableContent&lt;br&gt;&lt;/div&gt;&lt;div&gt;+ VariableContent(&lt;span style=&quot;background-color: initial;&quot;&gt;content:&amp;nbsp;&lt;/span&gt;&lt;span style=&quot;background-color: initial;&quot;&gt;int):&amp;nbsp;VariableContent&lt;/span&gt;&lt;/div&gt;&lt;div&gt;+ VariableContent(&lt;span style=&quot;background-color: initial;&quot;&gt;content:&amp;nbsp;&lt;/span&gt;&lt;span style=&quot;background-color: initial;&quot;&gt;Boolean):&amp;nbsp;VariableContent&lt;/span&gt;&lt;/div&gt;+ VariableContent(&lt;span style=&quot;background-color: initial;&quot;&gt;content: b&lt;/span&gt;&lt;span style=&quot;background-color: initial;&quot;&gt;oolean):&amp;nbsp;VariableContent&lt;/span&gt;&lt;div&gt;+ setContent(content: String): void&lt;/div&gt;&lt;div&gt;+ getContent(): String&lt;/div&gt;&lt;div&gt;+ getBooleanContent(): boolean&lt;br&gt;&lt;/div&gt;&lt;div&gt;+ getIntContent(): int&lt;br&gt;&lt;/div&gt;" style="text;strokeColor=none;fillColor=none;align=left;verticalAlign=top;spacingLeft=4;spacingRight=4;overflow=hidden;rotatable=0;points=[[0,0.5],[1,0.5]];portConstraint=eastwest;whiteSpace=wrap;html=1;" parent="LuJtDev87egbKqZCu1ZT-5" vertex="1">
          <mxGeometry y="60" width="310" height="150" as="geometry" />
        </mxCell>
        <mxCell id="LuJtDev87egbKqZCu1ZT-10" value="" style="endArrow=open;endFill=1;endSize=12;html=1;rounded=0;exitX=0;exitY=0;exitDx=0;exitDy=0;verticalAlign=middle;edgeStyle=elbowEdgeStyle;" parent="1" source="uLxtDjWklTKI-q3hw-Dd-3" edge="1">
          <mxGeometry width="160" relative="1" as="geometry">
            <mxPoint x="300" y="50" as="sourcePoint" />
            <mxPoint x="120" as="targetPoint" />
            <Array as="points">
              <mxPoint x="250" y="10" />
            </Array>
          </mxGeometry>
        </mxCell>
        <mxCell id="LuJtDev87egbKqZCu1ZT-11" value="&lt;span style=&quot;font-size: 12px; text-align: left; text-wrap: wrap; background-color: rgb(251, 251, 251);&quot;&gt;# VariableHandlerInstance&lt;/span&gt;" style="edgeLabel;html=1;align=center;verticalAlign=middle;resizable=0;points=[];metaEdit=0;" parent="LuJtDev87egbKqZCu1ZT-10" vertex="1" connectable="0">
          <mxGeometry x="-0.3235" y="1" relative="1" as="geometry">
            <mxPoint x="-101" y="-21" as="offset" />
          </mxGeometry>
        </mxCell>
        <mxCell id="e-DFRq8_y_RJbeUeSv9W-1" value="1" style="edgeLabel;html=1;align=center;verticalAlign=middle;resizable=0;points=[];" parent="LuJtDev87egbKqZCu1ZT-10" vertex="1" connectable="0">
          <mxGeometry x="0.7767" y="1" relative="1" as="geometry">
            <mxPoint x="-13" y="10" as="offset" />
          </mxGeometry>
        </mxCell>
        <mxCell id="e-DFRq8_y_RJbeUeSv9W-2" value="*" style="edgeLabel;html=1;align=center;verticalAlign=middle;resizable=0;points=[];" parent="LuJtDev87egbKqZCu1ZT-10" vertex="1" connectable="0">
          <mxGeometry x="-0.8767" relative="1" as="geometry">
            <mxPoint x="-2" y="10" as="offset" />
          </mxGeometry>
        </mxCell>
        <mxCell id="RJdc7BDFOfBHNQxDKPzy-1" value="PipelineSettingsReader" style="swimlane;fontStyle=1;align=center;verticalAlign=top;childLayout=stackLayout;horizontal=1;startSize=26;horizontalStack=0;resizeParent=1;resizeParentMax=0;resizeLast=0;collapsible=1;marginBottom=0;whiteSpace=wrap;html=1;" parent="1" vertex="1">
          <mxGeometry x="-860" y="260" width="920" height="430" as="geometry" />
        </mxCell>
        <mxCell id="RJdc7BDFOfBHNQxDKPzy-2" value="&lt;div&gt;- Map&amp;lt;String, PipelineStep&amp;gt; transformationAndCodeGenerationPreconfigurationsDefs;&lt;/div&gt;&lt;div&gt;&lt;span style=&quot;white-space: normal;&quot;&gt;- postProcessingSequence:&lt;/span&gt;&lt;span style=&quot;background-color: initial;&quot;&gt;&amp;nbsp;&lt;/span&gt;&lt;span style=&quot;background-color: initial;&quot;&gt;ArrayList&amp;lt;PipelineStep&amp;gt;&lt;/span&gt;&lt;span style=&quot;background-color: initial;&quot;&gt;;&lt;/span&gt;&lt;/div&gt;&lt;div&gt;&lt;span style=&quot;white-space: normal;&quot;&gt;- pipelineSequence:&lt;/span&gt;&lt;span style=&quot;background-color: initial;&quot;&gt;&amp;nbsp;&lt;/span&gt;&lt;span style=&quot;background-color: initial;&quot;&gt;ArrayList&amp;lt;PipelineStep&amp;gt;&lt;/span&gt;&lt;span style=&quot;background-color: initial;&quot;&gt;;&lt;/span&gt;&lt;/div&gt;&lt;div&gt;&lt;span style=&quot;white-space: normal;&quot;&gt;-&lt;/span&gt;&lt;span style=&quot;background-color: initial;&quot;&gt;&amp;nbsp;&lt;/span&gt;&lt;span style=&quot;background-color: initial;&quot;&gt;VariableHandlerInstance:&lt;/span&gt;&lt;span style=&quot;background-color: initial;&quot;&gt;&amp;nbsp;VariableHandler;&lt;/span&gt;&lt;/div&gt;&lt;div&gt;&lt;span style=&quot;white-space: normal;&quot;&gt;- stepDictionaryToUse:&amp;nbsp;&lt;/span&gt;&lt;span style=&quot;background-color: initial;&quot;&gt;PipelineStepDictionary&lt;/span&gt;&lt;span style=&quot;background-color: initial;&quot;&gt;;&lt;/span&gt;&lt;/div&gt;&lt;div&gt;&lt;span style=&quot;white-space: normal;&quot;&gt;- interpretPipelineSettingsCalled:&amp;nbsp;&lt;/span&gt;&lt;span style=&quot;background-color: initial;&quot;&gt;boolean&lt;/span&gt;&lt;span style=&quot;background-color: initial;&quot;&gt;;&lt;/span&gt;&lt;/div&gt;&lt;div&gt;&lt;span style=&quot;background-color: initial;&quot;&gt;-&lt;/span&gt;&lt;span style=&quot;background-color: initial;&quot;&gt;&amp;nbsp;&lt;/span&gt;&lt;span style=&quot;background-color: initial;&quot;&gt;postProcessingListExecutionIndex: int;&lt;/span&gt;&lt;br&gt;&lt;/div&gt;&lt;div&gt;&lt;span style=&quot;background-color: initial;&quot;&gt;-&lt;/span&gt;&lt;span style=&quot;background-color: initial;&quot;&gt;&amp;nbsp;&lt;/span&gt;&lt;span style=&quot;white-space: normal;&quot;&gt;pipelineSequenceExecutionIndex: int;&lt;/span&gt;&lt;/div&gt;" style="text;strokeColor=none;fillColor=none;align=left;verticalAlign=top;spacingLeft=4;spacingRight=4;overflow=hidden;rotatable=0;points=[[0,0.5],[1,0.5]];portConstraint=eastwest;whiteSpace=wrap;html=1;" parent="RJdc7BDFOfBHNQxDKPzy-1" vertex="1">
          <mxGeometry y="26" width="920" height="134" as="geometry" />
        </mxCell>
        <mxCell id="RJdc7BDFOfBHNQxDKPzy-3" value="" style="line;strokeWidth=1;fillColor=none;align=left;verticalAlign=middle;spacingTop=-1;spacingLeft=3;spacingRight=3;rotatable=0;labelPosition=right;points=[];portConstraint=eastwest;strokeColor=inherit;" parent="RJdc7BDFOfBHNQxDKPzy-1" vertex="1">
          <mxGeometry y="160" width="920" height="8" as="geometry" />
        </mxCell>
        <mxCell id="RJdc7BDFOfBHNQxDKPzy-4" value="&lt;div&gt;#&amp;nbsp;&lt;span style=&quot;background-color: initial;&quot;&gt;interpretSequenceDef(rawCurrentSequenceDef:&amp;nbsp;&lt;/span&gt;&lt;span style=&quot;background-color: initial;&quot;&gt;ArrayList&amp;lt;Map&amp;lt;String, Object&amp;gt;&amp;gt;&lt;/span&gt;&lt;span style=&quot;background-color: initial;&quot;&gt;,&amp;nbsp;&lt;/span&gt;&lt;span style=&quot;background-color: initial;&quot;&gt;fromStandalonePostProcessingSequenceAllowed: boolean):&amp;nbsp;&lt;/span&gt;&lt;span style=&quot;background-color: initial;&quot;&gt;ArrayList&amp;lt;PipelineStep&amp;gt;&lt;/span&gt;&lt;/div&gt;# interpretPipelineSettings(rawSettings: Map&amp;lt;String, Object&amp;gt;): void&lt;div&gt;+&amp;nbsp;interpretPipelineSettings(rawSettings: String): void&lt;/div&gt;&lt;div&gt;+&amp;nbsp;PipelineSettingsReader(PipelineStepDictionary stepDictionaryToUse):&amp;nbsp;PipelineSettingsReader&lt;/div&gt;&lt;div&gt;+&amp;nbsp;PipelineSettingsReader(PipelineStepDictionary stepDictionaryToUse, settingsFilePath: Path):&amp;nbsp;PipelineSettingsReader&lt;/div&gt;&lt;div&gt;+&amp;nbsp;checkForDetectableErrors(): void&lt;/div&gt;&lt;div&gt;+ getStandaloneUsageDef(name: String): PipelineStep&lt;/div&gt;&lt;div&gt;+ getNextPipelineStep(): PipelineStep&lt;/div&gt;&lt;div&gt;+&amp;nbsp;checkForDetectableErrors(): void&lt;/div&gt;&lt;div&gt;+&amp;nbsp;getTransformationAndCodeGenerationPreconfigurationsDef(&lt;span style=&quot;background-color: initial;&quot;&gt;stepName:&amp;nbsp;&lt;/span&gt;&lt;span style=&quot;background-color: initial;&quot;&gt;String)&lt;/span&gt;&lt;/div&gt;&lt;div&gt;+&amp;nbsp;hasNextPostProcessingStep(): boolean&lt;/div&gt;&lt;div&gt;+&amp;nbsp;getNextPostProcessingStep():&amp;nbsp;PipelineStep&lt;/div&gt;&lt;div&gt;+&amp;nbsp;hasNextPipelineSequenceStep(): boolean&lt;/div&gt;&lt;div&gt;+&amp;nbsp;getNextPipelineSequenceStep():&amp;nbsp;PipelineStep&lt;/div&gt;&lt;div&gt;+&amp;nbsp;resetPostProcessingProgress(): void&lt;/div&gt;&lt;div&gt;+&amp;nbsp;resetPipelineSequenceProgress(): void&lt;/div&gt;&lt;div&gt;+&amp;nbsp;IsEntryInTransformationAndCodeGenerationPreconfigurations(&lt;span style=&quot;background-color: initial;&quot;&gt;name:&amp;nbsp;&lt;/span&gt;&lt;span style=&quot;background-color: initial;&quot;&gt;String): boolean&lt;/span&gt;&lt;/div&gt;" style="text;strokeColor=none;fillColor=none;align=left;verticalAlign=top;spacingLeft=4;spacingRight=4;overflow=hidden;rotatable=0;points=[[0,0.5],[1,0.5]];portConstraint=eastwest;whiteSpace=wrap;html=1;" parent="RJdc7BDFOfBHNQxDKPzy-1" vertex="1">
          <mxGeometry y="168" width="920" height="262" as="geometry" />
        </mxCell>
        <mxCell id="RJdc7BDFOfBHNQxDKPzy-21" value="&lt;span style=&quot;text-wrap: wrap; font-size: 12px; text-align: left; background-color: rgb(251, 251, 251);&quot;&gt;-&amp;nbsp;&lt;/span&gt;&lt;span style=&quot;font-size: 12px; text-wrap: wrap;&quot;&gt;standaloneTransformationAndCodeGenerationDefs&lt;/span&gt;" style="endArrow=open;html=1;endSize=12;startArrow=diamondThin;startSize=14;startFill=0;rounded=0;exitX=1;exitY=0.5;exitDx=0;exitDy=0;" parent="1" edge="1">
          <mxGeometry x="0.1196" y="13" relative="1" as="geometry">
            <mxPoint x="61" y="290" as="sourcePoint" />
            <mxPoint x="400" y="290" as="targetPoint" />
            <mxPoint as="offset" />
          </mxGeometry>
        </mxCell>
        <mxCell id="RJdc7BDFOfBHNQxDKPzy-22" value="0..1" style="edgeLabel;resizable=0;html=1;align=left;verticalAlign=top;" parent="RJdc7BDFOfBHNQxDKPzy-21" connectable="0" vertex="1">
          <mxGeometry x="-1" relative="1" as="geometry">
            <mxPoint x="10" y="6" as="offset" />
          </mxGeometry>
        </mxCell>
        <mxCell id="RJdc7BDFOfBHNQxDKPzy-23" value="*" style="edgeLabel;resizable=0;html=1;align=right;verticalAlign=top;" parent="RJdc7BDFOfBHNQxDKPzy-21" connectable="0" vertex="1">
          <mxGeometry x="1" relative="1" as="geometry">
            <mxPoint x="-11" y="5" as="offset" />
          </mxGeometry>
        </mxCell>
        <mxCell id="RJdc7BDFOfBHNQxDKPzy-27" value="" style="endArrow=open;endFill=1;endSize=12;html=1;rounded=0;" parent="1" edge="1">
          <mxGeometry width="160" relative="1" as="geometry">
            <mxPoint x="-60" y="260" as="sourcePoint" />
            <mxPoint x="-60" y="200" as="targetPoint" />
          </mxGeometry>
        </mxCell>
        <mxCell id="RJdc7BDFOfBHNQxDKPzy-28" value="&lt;span style=&quot;font-size: 12px; text-align: left; text-wrap: wrap; background-color: rgb(251, 251, 251);&quot;&gt;- VariableHandlerInstance&amp;nbsp;&lt;/span&gt;" style="edgeLabel;html=1;align=center;verticalAlign=middle;resizable=0;points=[];" parent="RJdc7BDFOfBHNQxDKPzy-27" vertex="1" connectable="0">
          <mxGeometry x="-0.3235" y="1" relative="1" as="geometry">
            <mxPoint x="-79" y="-20" as="offset" />
          </mxGeometry>
        </mxCell>
        <mxCell id="e-DFRq8_y_RJbeUeSv9W-3" value="1" style="edgeLabel;html=1;align=center;verticalAlign=middle;resizable=0;points=[];" parent="RJdc7BDFOfBHNQxDKPzy-27" vertex="1" connectable="0">
          <mxGeometry x="0.5548" y="-4" relative="1" as="geometry">
            <mxPoint x="6" as="offset" />
          </mxGeometry>
        </mxCell>
        <mxCell id="e-DFRq8_y_RJbeUeSv9W-4" value="1" style="edgeLabel;html=1;align=center;verticalAlign=middle;resizable=0;points=[];" parent="RJdc7BDFOfBHNQxDKPzy-27" vertex="1" connectable="0">
          <mxGeometry x="-0.4684" relative="1" as="geometry">
            <mxPoint x="10" y="6" as="offset" />
          </mxGeometry>
        </mxCell>
        <mxCell id="RJdc7BDFOfBHNQxDKPzy-30" value="" style="endArrow=open;endFill=1;endSize=12;html=1;rounded=0;entryX=0.192;entryY=1.04;entryDx=0;entryDy=0;entryPerimeter=0;exitX=0.552;exitY=0;exitDx=0;exitDy=0;exitPerimeter=0;" parent="1" source="RJdc7BDFOfBHNQxDKPzy-1" target="uLxtDjWklTKI-q3hw-Dd-2" edge="1">
          <mxGeometry width="160" relative="1" as="geometry">
            <mxPoint x="-351" y="250" as="sourcePoint" />
            <mxPoint x="91" y="161" as="targetPoint" />
          </mxGeometry>
        </mxCell>
        <mxCell id="RJdc7BDFOfBHNQxDKPzy-31" value="&lt;span style=&quot;font-size: 12px; text-align: left; text-wrap: wrap; background-color: rgb(251, 251, 251);&quot;&gt;- stepDictionaryToUse&lt;/span&gt;" style="edgeLabel;html=1;align=center;verticalAlign=middle;resizable=0;points=[];" parent="RJdc7BDFOfBHNQxDKPzy-30" vertex="1" connectable="0">
          <mxGeometry x="-0.3235" y="1" relative="1" as="geometry">
            <mxPoint x="-72" y="-437" as="offset" />
          </mxGeometry>
        </mxCell>
        <mxCell id="e-DFRq8_y_RJbeUeSv9W-5" value="1" style="edgeLabel;html=1;align=center;verticalAlign=middle;resizable=0;points=[];" parent="RJdc7BDFOfBHNQxDKPzy-30" vertex="1" connectable="0">
          <mxGeometry x="0.9479" y="-1" relative="1" as="geometry">
            <mxPoint x="19" y="5" as="offset" />
          </mxGeometry>
        </mxCell>
        <mxCell id="e-DFRq8_y_RJbeUeSv9W-6" value="1" style="edgeLabel;html=1;align=center;verticalAlign=middle;resizable=0;points=[];" parent="RJdc7BDFOfBHNQxDKPzy-30" vertex="1" connectable="0">
          <mxGeometry x="-0.9379" y="1" relative="1" as="geometry">
            <mxPoint x="11" as="offset" />
          </mxGeometry>
        </mxCell>
        <mxCell id="RJdc7BDFOfBHNQxDKPzy-33" value="&lt;span style=&quot;font-size: 12px; text-align: left; text-wrap: wrap; background-color: rgb(251, 251, 251);&quot;&gt;- variableValue&lt;/span&gt;" style="endArrow=open;html=1;endSize=12;startArrow=diamondThin;startSize=14;startFill=0;rounded=0;exitX=0.5;exitY=0;exitDx=0;exitDy=0;entryX=0.501;entryY=1.015;entryDx=0;entryDy=0;entryPerimeter=0;" parent="1" source="LuJtDev87egbKqZCu1ZT-1" target="LuJtDev87egbKqZCu1ZT-8" edge="1">
          <mxGeometry x="0.3587" y="50" relative="1" as="geometry">
            <mxPoint x="120" y="-190" as="sourcePoint" />
            <mxPoint x="-50" y="-110" as="targetPoint" />
            <mxPoint as="offset" />
          </mxGeometry>
        </mxCell>
        <mxCell id="RJdc7BDFOfBHNQxDKPzy-34" value="0..n" style="edgeLabel;resizable=0;html=1;align=left;verticalAlign=top;" parent="RJdc7BDFOfBHNQxDKPzy-33" connectable="0" vertex="1">
          <mxGeometry x="-1" relative="1" as="geometry">
            <mxPoint x="10" y="-30" as="offset" />
          </mxGeometry>
        </mxCell>
        <mxCell id="RJdc7BDFOfBHNQxDKPzy-35" value="*" style="edgeLabel;resizable=0;html=1;align=right;verticalAlign=top;" parent="RJdc7BDFOfBHNQxDKPzy-33" connectable="0" vertex="1">
          <mxGeometry x="1" relative="1" as="geometry">
            <mxPoint x="20" y="-2" as="offset" />
          </mxGeometry>
        </mxCell>
        <mxCell id="li9nxP5B_Dte2q9aE-Od-1" value="&lt;span style=&quot;text-wrap: wrap; font-size: 12px; text-align: left; background-color: rgb(251, 251, 251);&quot;&gt;-&amp;nbsp;&lt;/span&gt;&lt;span style=&quot;font-size: 12px; text-wrap: wrap; background-color: rgb(251, 251, 251);&quot;&gt;StandalonePostProcessingSequence&lt;/span&gt;" style="endArrow=open;html=1;endSize=12;startArrow=diamondThin;startSize=14;startFill=0;rounded=0;exitX=1;exitY=0.5;exitDx=0;exitDy=0;entryX=-0.002;entryY=0.942;entryDx=0;entryDy=0;entryPerimeter=0;" parent="1" edge="1">
          <mxGeometry x="0.2913" y="10" relative="1" as="geometry">
            <mxPoint x="61.28" y="339.5" as="sourcePoint" />
            <mxPoint x="399.9999999999998" y="340.24400000000014" as="targetPoint" />
            <mxPoint as="offset" />
          </mxGeometry>
        </mxCell>
        <mxCell id="li9nxP5B_Dte2q9aE-Od-2" value="0..1" style="edgeLabel;resizable=0;html=1;align=left;verticalAlign=top;" parent="li9nxP5B_Dte2q9aE-Od-1" connectable="0" vertex="1">
          <mxGeometry x="-1" relative="1" as="geometry">
            <mxPoint x="10" y="6" as="offset" />
          </mxGeometry>
        </mxCell>
        <mxCell id="li9nxP5B_Dte2q9aE-Od-3" value="*" style="edgeLabel;resizable=0;html=1;align=right;verticalAlign=top;" parent="li9nxP5B_Dte2q9aE-Od-1" connectable="0" vertex="1">
          <mxGeometry x="1" relative="1" as="geometry">
            <mxPoint x="-11" y="5" as="offset" />
          </mxGeometry>
        </mxCell>
        <mxCell id="li9nxP5B_Dte2q9aE-Od-4" value="&lt;span style=&quot;text-wrap: wrap; font-size: 12px; text-align: left; background-color: rgb(251, 251, 251);&quot;&gt;-&amp;nbsp;&lt;/span&gt;&lt;span style=&quot;text-wrap: wrap; font-size: 12px; text-align: left; background-color: initial;&quot;&gt;pipelineSequence&lt;/span&gt;" style="endArrow=open;html=1;endSize=12;startArrow=diamondThin;startSize=14;startFill=0;rounded=0;exitX=1;exitY=0.5;exitDx=0;exitDy=0;entryX=-0.002;entryY=0.942;entryDx=0;entryDy=0;entryPerimeter=0;" parent="1" edge="1">
          <mxGeometry x="0.5865" y="11" relative="1" as="geometry">
            <mxPoint x="61.28" y="390" as="sourcePoint" />
            <mxPoint x="399.9999999999998" y="390.74400000000014" as="targetPoint" />
            <mxPoint as="offset" />
          </mxGeometry>
        </mxCell>
        <mxCell id="li9nxP5B_Dte2q9aE-Od-5" value="0..1" style="edgeLabel;resizable=0;html=1;align=left;verticalAlign=top;" parent="li9nxP5B_Dte2q9aE-Od-4" connectable="0" vertex="1">
          <mxGeometry x="-1" relative="1" as="geometry">
            <mxPoint x="10" y="6" as="offset" />
          </mxGeometry>
        </mxCell>
        <mxCell id="li9nxP5B_Dte2q9aE-Od-6" value="*" style="edgeLabel;resizable=0;html=1;align=right;verticalAlign=top;" parent="li9nxP5B_Dte2q9aE-Od-4" connectable="0" vertex="1">
          <mxGeometry x="1" relative="1" as="geometry">
            <mxPoint x="-11" y="5" as="offset" />
          </mxGeometry>
        </mxCell>
        <mxCell id="S3_x_iDOIBZ8rP-PaUuR-1" value="implements" style="endArrow=open;endSize=12;dashed=1;html=1;rounded=0;exitX=1;exitY=0;exitDx=0;exitDy=0;entryX=0;entryY=1;entryDx=0;entryDy=0;" parent="1" source="RJdc7BDFOfBHNQxDKPzy-1" target="uLxtDjWklTKI-q3hw-Dd-1" edge="1">
          <mxGeometry y="-40" width="160" relative="1" as="geometry">
            <mxPoint x="734" y="10" as="sourcePoint" />
            <mxPoint x="320" y="60" as="targetPoint" />
            <mxPoint as="offset" />
            <Array as="points">
              <mxPoint x="120" y="260" />
            </Array>
          </mxGeometry>
        </mxCell>
        <mxCell id="xD819yVm4WyTLMYMboFF-1" value="&lt;div&gt;Deutsch:&lt;/div&gt;&lt;div&gt;Es wurden viele Kindklassen erstellt, jeweils für einen Schritt des Arbeitsablaufes. Für die bessere Lesbarkeit werden sie aus diesem Diagramm weggelassen.&lt;/div&gt;" style="shape=note;size=20;whiteSpace=wrap;html=1;align=left;" parent="1" vertex="1">
          <mxGeometry x="190" y="620" width="400" height="80" as="geometry" />
        </mxCell>
      </root>
    </mxGraphModel>
  </diagram>
</mxfile>
